<svg width="185" height="32" viewBox="0 0 185 32" fill="none" xmlns="http://www.w3.org/2000/svg"><path fill-rule="evenodd" clip-rule="evenodd" d="M7.18091 12.6457C5.74932 15.0316 5.03353 14.3158 2.64756 15.5088C1.45457 16.4632 -0.215609 17.8948 0.0229881 20.0422C0.500183 19.8036 0.977377 19.565 1.45457 19.565C2.88616 18.6106 6.22652 18.6106 8.1353 19.0878C8.37389 19.0878 8.61249 19.3264 8.85109 19.3264C9.32828 19.565 9.56688 19.8036 10.0441 20.0422C10.0441 19.8036 10.5213 19.8036 11.2371 19.565C17.9178 17.6562 27.4617 12.6457 30.3248 5.96493C31.0406 5.01054 31.7564 1.90878 31.0406 0V0.477195C30.802 1.43158 30.5634 2.14738 30.0863 3.10177C29.8477 3.81756 29.3705 4.77195 28.1775 6.20353C27.9389 6.44213 27.9389 6.44213 27.7003 6.68073C27.7003 6.91932 27.4617 7.15792 27.2231 7.39652C25.5529 9.0667 23.1669 10.4983 21.0196 11.6913C19.1108 12.6457 8.85109 17.4176 7.4195 15.0316C7.18091 14.3158 7.18091 12.8843 7.18091 12.6457Z" fill="#161616"></path><path fill-rule="evenodd" clip-rule="evenodd" d="M30.3248 7.39672C30.3248 7.87392 30.0862 8.82831 29.8476 9.3055C29.3704 10.7371 28.416 11.9301 27.223 13.1231C22.2125 18.6108 17.6791 19.8038 11.4756 21.9512C16.0089 26.7231 22.6897 32.4494 29.8476 31.9722C25.7914 30.0635 22.2125 28.1547 17.9177 23.6213C23.4055 21.2354 30.0862 15.9862 30.5634 9.78269C30.5634 8.82831 30.5634 8.11251 30.3248 7.39672C30.3248 7.15812 30.3248 7.15812 30.3248 7.39672Z" fill="#D71921"></path><path d="M182.575 17.7776H171.435V14.2226H182.575V17.7776ZM184.162 25.7287H171.435C170.946 25.7287 170.413 25.6428 169.834 25.4709C169.255 25.2991 168.717 25.0187 168.219 24.6297C167.731 24.2317 167.319 23.7206 166.984 23.0964C166.659 22.4633 166.496 21.6898 166.496 20.7762V8.04896C166.496 7.80473 166.541 7.57406 166.632 7.35697C166.722 7.13987 166.844 6.94991 166.998 6.78709C167.161 6.62427 167.351 6.49763 167.568 6.40717C167.785 6.31671 168.02 6.27148 168.273 6.27148H184.162V9.7993H170.024V20.7762C170.024 21.2376 170.146 21.5903 170.39 21.8346C170.634 22.0788 170.992 22.2009 171.462 22.2009H184.162V25.7287Z" fill="#161616"></path><path d="M163.239 25.7287H150.512C150.186 25.7287 149.834 25.6926 149.454 25.6202C149.083 25.5388 148.712 25.4167 148.341 25.2538C147.979 25.091 147.631 24.883 147.296 24.6297C146.962 24.3674 146.663 24.0553 146.401 23.6935C146.148 23.3226 145.944 22.8974 145.79 22.418C145.636 21.9296 145.56 21.3823 145.56 20.7762V11.224C145.56 10.8983 145.596 10.5501 145.668 10.1792C145.75 9.7993 145.872 9.42843 146.034 9.0666C146.197 8.69573 146.41 8.34295 146.672 8.00826C146.935 7.67356 147.247 7.37958 147.608 7.1263C147.979 6.86398 148.404 6.65593 148.884 6.50215C149.363 6.34837 149.906 6.27148 150.512 6.27148H163.239V9.7993H150.512C150.051 9.7993 149.698 9.92142 149.454 10.1656C149.21 10.4099 149.087 10.7717 149.087 11.2511V20.7762C149.087 21.2285 149.21 21.5813 149.454 21.8346C149.707 22.0788 150.06 22.2009 150.512 22.2009H163.239V25.7287Z" fill="#161616"></path><path d="M142.276 12.8115C142.276 13.6166 142.177 14.3357 141.978 14.9689C141.779 15.6021 141.507 16.1629 141.164 16.6514C140.829 17.1308 140.44 17.5424 139.997 17.8861C139.553 18.2299 139.088 18.5148 138.599 18.741C138.12 18.9581 137.631 19.1164 137.134 19.2159C136.645 19.3154 136.184 19.3651 135.75 19.3651L143.117 25.7287H137.663L130.309 19.3651H127.771V15.8373H135.75C136.193 15.8011 136.596 15.7107 136.957 15.5659C137.328 15.4121 137.645 15.2086 137.907 14.9553C138.179 14.7021 138.387 14.399 138.531 14.0462C138.676 13.6844 138.748 13.2728 138.748 12.8115V10.5863C138.748 10.3873 138.721 10.238 138.667 10.1385C138.622 10.03 138.558 9.95308 138.477 9.90785C138.405 9.85357 138.323 9.82191 138.233 9.81287C138.151 9.80382 138.074 9.7993 138.002 9.7993H126.36V25.7287H122.833V8.04896C122.833 7.80473 122.878 7.57406 122.968 7.35697C123.059 7.13987 123.181 6.94991 123.335 6.78709C123.497 6.62427 123.687 6.49763 123.904 6.40717C124.122 6.31671 124.357 6.27148 124.61 6.27148H138.002C138.789 6.27148 139.454 6.41622 139.997 6.70568C140.539 6.98609 140.978 7.3434 141.313 7.77759C141.657 8.20274 141.901 8.66407 142.046 9.16158C142.199 9.65909 142.276 10.1249 142.276 10.5591V12.8115Z" fill="#161616"></path><path d="M119.345 17.8589C119.345 19.0439 119.142 20.1339 118.735 21.1289C118.328 22.1239 117.762 22.9833 117.039 23.7069C116.315 24.4306 115.456 24.9959 114.461 25.403C113.475 25.801 112.398 26 111.231 26H106.455C105.288 26 104.207 25.801 103.212 25.403C102.217 24.9959 101.358 24.4306 100.634 23.7069C99.9108 22.9833 99.3409 22.1239 98.9248 21.1289C98.5177 20.1339 98.3142 19.0439 98.3142 17.8589V14.1411C98.3142 12.9652 98.5177 11.8797 98.9248 10.8847C99.3409 9.8806 99.9108 9.02126 100.634 8.30665C101.358 7.58299 102.217 7.01764 103.212 6.61058C104.207 6.20353 105.288 6 106.455 6H111.231C112.398 6 113.475 6.20353 114.461 6.61058C115.456 7.01764 116.315 7.58299 117.039 8.30665C117.762 9.02126 118.328 9.8806 118.735 10.8847C119.142 11.8797 119.345 12.9652 119.345 14.1411V17.8589ZM115.818 14.1411C115.818 13.4446 115.705 12.8159 115.478 12.2551C115.261 11.6852 114.949 11.2013 114.542 10.8033C114.144 10.3962 113.66 10.0841 113.09 9.86703C112.529 9.64089 111.91 9.52782 111.231 9.52782H106.455C105.768 9.52782 105.139 9.64089 104.569 9.86703C104.008 10.0841 103.525 10.3962 103.117 10.8033C102.71 11.2013 102.394 11.6852 102.168 12.2551C101.951 12.8159 101.842 13.4446 101.842 14.1411V17.8589C101.842 18.5554 101.951 19.1886 102.168 19.7585C102.394 20.3193 102.71 20.8033 103.117 21.2103C103.525 21.6083 104.008 21.9204 104.569 22.1465C105.139 22.3636 105.768 22.4722 106.455 22.4722H111.204C111.892 22.4722 112.516 22.3636 113.077 22.1465C113.647 21.9204 114.135 21.6083 114.542 21.2103C114.949 20.8033 115.261 20.3193 115.478 19.7585C115.705 19.1886 115.818 18.5554 115.818 17.8589V14.1411Z" fill="#161616"></path><path d="M94.6369 17.7776H83.4836V14.2226H94.6369V17.7776ZM96.2109 9.7993H82.0725V25.7287H78.5447V8.04896C78.5447 7.80473 78.5899 7.57406 78.6804 7.35697C78.7708 7.13987 78.8929 6.94991 79.0467 6.78709C79.2095 6.62427 79.3995 6.49763 79.6166 6.40717C79.8337 6.31671 80.0689 6.27148 80.3222 6.27148H96.2109V9.7993Z" fill="#161616"></path><path d="M74.4334 24.2225C74.4334 24.4758 74.3837 24.711 74.2842 24.9281C74.1937 25.1452 74.0671 25.3351 73.9043 25.4979C73.7505 25.6517 73.5651 25.7738 73.348 25.8643C73.1309 25.9548 72.9002 26 72.656 26C72.4389 26 72.2172 25.9593 71.9911 25.8779C71.774 25.7965 71.5795 25.6653 71.4077 25.4844L58.5176 12.0244V25.7286H54.9897V7.77746C54.9897 7.41563 55.0892 7.08998 55.2883 6.80052C55.4963 6.50202 55.7586 6.2804 56.0752 6.13567C56.4099 5.99998 56.7537 5.96832 57.1064 6.04069C57.4592 6.10401 57.7622 6.26683 58.0155 6.52915L70.9056 19.9756V6.27135H74.4334V24.2225Z" fill="#161616"></path><path d="M50.865 25.7287H47.3372V6.27148H50.865V25.7287Z" fill="#161616"></path></svg>